<svg width="314" height="58" viewBox="0 0 314 58" fill="none" xmlns="http://www.w3.org/2000/svg">
<g clip-path="url(#clip0_828_958)">
<path d="M71.8553 38.3912C70.335 35.5735 69.5742 32.3751 69.5742 28.7961C69.5742 25.2774 70.335 22.1376 71.8553 19.3801C73.3751 16.621 75.4842 14.4663 78.1821 12.9162C80.8794 11.3661 83.9576 10.5894 87.4145 10.5894C90.1274 10.5894 92.6013 11.1181 94.8374 12.1774C97.0735 13.2366 98.9211 14.7419 100.383 16.695C101.842 18.6481 102.767 20.9234 103.154 23.5172H97.5196C97.0723 21.2213 95.8942 19.3577 93.9871 17.9248C92.0795 16.4935 89.8295 15.777 87.2356 15.777C84.8511 15.777 82.7559 16.3144 80.9533 17.3874C79.1495 18.4604 77.7498 19.9606 76.7495 21.8827C75.7509 23.8066 75.2516 26.0352 75.2516 28.5705C75.2516 31.2539 75.7509 33.6255 76.7495 35.6837C77.748 37.7419 79.1426 39.3368 80.9313 40.4701C82.7195 41.6034 84.7905 42.17 87.1455 42.17C89.9173 42.17 92.2878 41.4019 94.2555 39.8656C96.2232 38.3292 97.4458 36.309 97.9225 33.803H103.557C103.109 36.5173 102.118 38.8959 100.584 40.9386C99.0481 42.9813 97.141 44.5624 94.8599 45.6801C92.5788 46.7979 90.1274 47.3577 87.504 47.3577C84.0454 47.3577 80.9533 46.5672 78.2248 44.986C75.4998 43.4084 73.3751 41.209 71.8553 38.3912Z" fill="white"/>
<path d="M108.161 41.3649C107.147 39.4858 106.641 37.3536 106.641 34.9682C106.641 32.5827 107.147 30.4573 108.161 28.5938C109.175 26.7302 110.59 25.2766 112.409 24.2311C114.227 23.1874 116.285 22.6655 118.58 22.6655C120.547 22.6655 122.335 23.1426 123.945 24.0968C125.555 25.0509 126.829 26.4391 127.769 28.2579C128.707 30.0767 129.177 32.2245 129.177 34.6995V36.6233H112.051C112.201 38.5919 112.842 40.1575 113.974 41.3201C115.107 42.4827 116.642 43.0648 118.58 43.0648C119.95 43.0648 121.105 42.729 122.045 42.059C122.983 41.3873 123.558 40.5761 123.766 39.6201H128.998C128.759 41.0807 128.163 42.4017 127.209 43.5798C126.256 44.7579 125.033 45.6828 123.542 46.3545C122.051 47.0245 120.397 47.3603 118.58 47.3603C116.283 47.3603 114.227 46.8298 112.409 45.7723C110.59 44.7131 109.175 43.244 108.161 41.3649ZM122.291 28.7953C121.277 27.7223 119.98 27.1849 118.4 27.1849C116.612 27.1849 115.174 27.7068 114.086 28.7505C112.998 29.7943 112.32 31.2118 112.051 33.0012H123.945C123.856 31.2703 123.303 29.8683 122.291 28.7953Z" fill="white"/>
<path d="M138.656 23.3838V27.1419C139.49 25.7399 140.585 24.6445 141.942 23.8539C143.298 23.0634 144.886 22.6689 146.704 22.6689C149.565 22.6689 151.712 23.5405 153.142 25.2852C154.573 27.0299 155.288 29.6031 155.288 33.003V46.6473H149.968V33.2268C149.968 31.3478 149.527 29.8718 148.649 28.7988C147.771 27.7257 146.54 27.1884 144.959 27.1884C143.052 27.1884 141.523 27.9118 140.377 29.3585C139.229 30.8052 138.656 32.6912 138.656 35.0181V46.649H133.379V23.3838H138.656Z" fill="white"/>
<path d="M165.683 46.2883C164.745 45.93 164.044 45.2807 163.581 44.342C163.117 43.4034 162.902 42.0823 162.932 40.3824V28.0798H157.969V23.383H162.932V17.1206H168.208V23.383H174.647V28.0798H168.208V38.1003C168.208 39.2939 168.26 40.143 168.365 40.6494C168.47 41.1575 168.73 41.5295 169.146 41.7689C169.565 42.0065 170.234 42.1271 171.158 42.1271C171.844 42.1271 172.649 42.0823 173.572 41.9928V46.6C171.873 46.7499 170.503 46.8239 169.46 46.8239C167.881 46.8239 166.623 46.6448 165.683 46.2883Z" fill="white"/>
<path d="M178.091 43.8709C177.493 42.8272 177.195 41.6939 177.195 40.471C177.195 38.3835 178.066 36.7129 179.812 35.4607C181.556 34.2086 184.126 33.387 187.524 32.9995L193.025 32.3726V31.21C193.054 29.8976 192.66 28.8987 191.838 28.2132C191.019 27.5277 189.774 27.1849 188.105 27.1849C186.495 27.1849 185.25 27.5501 184.371 28.2803C183.491 29.0106 183.052 30.0319 183.052 31.3443H178.044C178.044 28.6006 178.931 26.4684 180.704 24.9476C182.477 23.4268 184.975 22.6655 188.194 22.6655C191.442 22.6655 193.932 23.4113 195.662 24.9028C197.391 26.3944 198.255 28.4973 198.255 31.21V40.3366C198.255 41.2615 198.367 41.9022 198.591 42.2605C198.815 42.6187 199.253 42.7978 199.909 42.7978L200.445 42.7531L200.4 46.4664C199.535 46.7058 198.685 46.8247 197.852 46.8247C195.17 46.8247 193.679 45.3486 193.381 42.3948C192.754 43.9759 191.756 45.1988 190.386 46.0634C189.015 46.928 187.301 47.3603 185.243 47.3603C183.484 47.3603 182.002 47.0399 180.795 46.3975C179.588 45.7568 178.686 44.9146 178.091 43.8709ZM192.891 36.3546L189.313 36.7129C186.958 36.9816 185.221 37.3914 184.104 37.9426C182.986 38.4955 182.427 39.2774 182.427 40.2919C182.427 41.1272 182.756 41.842 183.41 42.4396C184.066 43.0373 185.049 43.3352 186.361 43.3352C188.179 43.3352 189.692 42.6721 190.899 41.3442C192.109 40.0163 192.772 38.3525 192.891 36.3546Z" fill="white"/>
<path d="M219.61 46.6439V42.8858C218.775 44.2878 217.68 45.3832 216.324 46.1737C214.967 46.9643 213.365 47.3587 211.517 47.3587C208.685 47.3587 206.554 46.4855 205.124 44.7408C203.693 42.996 202.977 40.4246 202.977 37.0247V23.3804H208.253V36.8008C208.253 38.6799 208.692 40.1559 209.572 41.2289C210.45 42.3037 211.696 42.8393 213.306 42.8393C215.184 42.8393 216.704 42.1159 217.866 40.6692C219.028 39.2224 219.61 37.3365 219.61 35.0096V23.3787H224.842V46.6405H219.61V46.6439Z" fill="white"/>
<path d="M234.941 23.3827V27.8109C236.461 24.6796 239.533 23.114 244.153 23.114V28.0795C241.321 28.0795 239.078 28.5204 237.424 29.3988C235.769 30.2772 234.941 31.7171 234.941 33.7167V46.6446H229.844V23.3827H234.941Z" fill="white"/>
<path d="M245.938 16.5389C245.938 15.5244 246.28 14.6822 246.965 14.0105C247.652 13.3388 248.501 13.0046 249.515 13.0046C250.529 13.0046 251.378 13.3405 252.065 14.0105C252.75 14.6822 253.092 15.5244 253.092 16.5389C253.092 17.5223 252.741 18.3576 252.042 19.0431C251.341 19.7286 250.5 20.0714 249.515 20.0714C248.501 20.0714 247.652 19.7355 246.965 19.0655C246.282 18.3955 245.938 17.5516 245.938 16.5389ZM252.154 23.3834V46.6452H246.922V23.3834H252.154Z" fill="white"/>
<path d="M255.332 28.0788V23.382H260.832V20.8312C260.772 17.6104 261.51 15.194 263.045 13.5836C264.58 11.9733 266.898 11.212 269.998 11.3015L272.412 11.3463V15.9088H270.667C268.997 15.9088 267.813 16.267 267.112 16.9818C266.412 17.6983 266.061 18.9659 266.061 20.7847V23.3802H272.633V28.0771H266.061V46.6421H260.829V28.0788H255.332Z" fill="white"/>
<path d="M278.359 51.0297C279.909 51.0297 281.139 50.7541 282.048 50.203C282.957 49.6501 283.83 48.6597 284.663 47.2285L273.754 23.3845H279.299L287.392 40.7869L293.786 23.3845H299.33L289.805 48.391C288.733 51.0452 287.271 52.9087 285.424 53.9835C283.575 55.0565 281.146 55.5938 278.135 55.5938H275.72V51.0314H278.359V51.0297Z" fill="white"/>
<path d="M46.8989 42.1594C53.4475 35.115 57.4518 28.844 56.09 27.4817C54.8591 26.2502 49.6103 29.4107 43.4077 34.8756C51.1287 26.438 55.837 19.2024 54.3341 17.7006C52.8467 16.2125 45.7455 20.8145 37.4219 28.3997C45.7609 19.0887 50.5433 10.7871 48.4482 8.69275C46.3531 6.59668 38.0571 11.3813 28.7507 19.726C36.3322 11.3968 40.9321 4.2922 39.4447 2.80411C37.9436 1.30052 30.7114 6.01281 22.276 13.7357C27.7384 7.5302 30.8991 2.2788 29.6682 1.04733C28.3083 -0.313312 22.0385 3.69111 14.9975 10.2428C16.7603 7.86088 17.5436 5.79063 16.7982 5.04659C15.7532 4.00113 12.1001 5.96287 8.63817 9.42649C5.17622 12.8901 3.21541 16.5449 4.26037 17.5903C5.00579 18.3344 7.07504 17.5525 9.4559 15.7887C2.90726 22.8331 -1.09527 29.1041 0.264734 30.4665C1.49562 31.6979 6.74453 28.5374 12.9471 23.0725C5.22614 31.5102 0.517797 38.7457 2.02068 40.2476C3.50807 41.7357 10.6093 37.1336 18.9329 29.5467C10.5938 38.8576 5.81148 47.1593 7.90657 49.2554C10.0016 51.3514 18.2976 46.5668 27.6041 38.2221C20.0226 46.5513 15.4227 53.6559 16.9101 55.144C18.4112 56.6459 25.6433 51.9353 34.077 44.2124C28.6146 50.418 25.4557 55.6693 26.6865 56.9008C28.0465 58.2613 34.3163 54.257 41.3573 47.7053C39.5927 50.0872 38.8112 52.1575 39.5549 52.9016C40.5998 53.947 44.2529 51.9853 47.7149 48.5217C51.1769 45.058 53.1376 41.4033 52.0927 40.3578C51.349 39.6121 49.2798 40.3957 46.8989 42.1594Z" fill="white"/>
<path d="M300.426 10.633V9.72705H306.078V10.633H303.712V15.7397H302.792V10.633H300.426Z" fill="white"/>
<path d="M308.074 9.72705L310.021 14.5289L311.976 9.72705H313.422V15.7397H312.494V10.9912L310.478 15.7397H309.566L307.557 10.9912V15.7397H306.629V9.72705H308.074Z" fill="white"/>
</g>
<defs>
<clipPath id="clip0_828_958">
<rect width="314" height="57.1434" fill="white" transform="translate(0 0.428223)"/>
</clipPath>
</defs>
</svg>
