<svg width="48" height="48" viewBox="0 0 48 48" fill="none" xmlns="http://www.w3.org/2000/svg">
<path d="M27.91 8.31727L25.9297 6.3357C25.4208 5.82501 24.7309 5.5359 24.0099 5.53128C23.289 5.52665 22.5954 5.80689 22.0801 6.31102C22.0665 6.31646 22.0543 6.3249 22.0444 6.3357C22.0358 6.3442 22.0293 6.35451 22.0252 6.36587L6.3388 22.0525C6.22915 22.1631 6.12742 22.2814 6.03434 22.4063C5.6664 22.9318 5.49149 23.5685 5.53926 24.2082C5.59068 24.8585 5.87221 25.4692 6.33331 25.9306L10.2858 29.8882C10.7977 30.4015 11.4921 30.6912 12.2171 30.694C12.942 30.6969 13.6386 30.4126 14.1546 29.9033L35.7409 8.31727L39.6604 12.2352L17.6435 34.2559C16.0525 35.6118 14.009 36.3184 11.9203 36.235C9.83158 36.1517 7.85094 35.2844 6.37308 33.8061L2.43571 29.8677C1.66351 29.0957 1.05095 28.1792 0.633026 27.1705C0.215103 26.1618 0 25.0806 0 23.9888C0 22.897 0.215103 21.8158 0.633026 20.8071C1.05095 19.7984 1.66351 18.8819 2.43571 18.1099L18.1125 2.4329C19.6717 0.875076 21.7856 0 23.9898 0C26.1939 0 28.3079 0.875076 29.867 2.4329L31.8282 4.3939L27.91 8.31727Z" fill="#12F0C4"/>
<path d="M43.5837 16.1531L45.5654 18.1346C47.0438 19.6124 47.9111 21.5929 47.9945 23.6815C48.0778 25.77 47.3711 27.8134 46.0152 29.4042L29.4045 46.0137C27.8137 47.3697 25.7703 48.0766 23.6816 47.9935C21.5928 47.9104 19.6121 47.0434 18.1341 45.5653L16.1523 43.5837L20.0705 39.6659L22.0522 41.6474C22.307 41.9026 22.6096 42.1051 22.9427 42.2432C23.2758 42.3814 23.6329 42.4525 23.9935 42.4525C24.3541 42.4525 24.7112 42.3814 25.0443 42.2432C25.3774 42.1051 25.68 41.9026 25.9347 41.6474L41.6472 25.9361C42.1566 25.4301 42.4473 24.7445 42.4568 24.0266C42.4662 23.3087 42.1938 22.6157 41.698 22.0964L39.6655 20.0655L43.5837 16.1531Z" fill="#12F0C4"/>
</svg>
