<svg width="270" height="35" viewBox="0 0 270 35" fill="none" xmlns="http://www.w3.org/2000/svg">
<path d="M228.434 24.5339V19.0162H231.207C231.78 19.0013 232.35 19.1099 232.881 19.3349C233.322 19.5261 233.695 19.8527 233.952 20.2707C234.198 20.7328 234.328 21.2521 234.328 21.7801C234.328 22.3081 234.198 22.8274 233.952 23.2895C233.694 23.7048 233.32 24.0288 232.881 24.2186C232.351 24.4453 231.78 24.5539 231.207 24.5373L228.434 24.5339ZM229.437 23.6585H231.162C231.447 23.6604 231.731 23.6244 232.007 23.5512C232.252 23.4874 232.482 23.3733 232.683 23.2157C232.875 23.0685 233.029 22.8751 233.133 22.6522C233.248 22.4021 233.305 22.1275 233.298 21.8506V21.6661C233.305 21.3913 233.248 21.1188 233.133 20.8711C233.029 20.6493 232.875 20.457 232.683 20.311C232.48 20.1562 232.25 20.0425 232.007 19.9756C231.731 19.9023 231.447 19.8663 231.162 19.8682H229.437V23.6585Z" fill="#1FDEE7"/>
<path d="M235.695 24.5338V19.0161H236.699V24.5338H235.695Z" fill="#1FDEE7"/>
<path d="M241.28 24.6444C240.201 24.6444 239.394 24.4085 238.859 23.9367C238.324 23.4649 238.056 22.7482 238.056 21.7866C238.038 21.2287 238.18 20.6777 238.464 20.2034C238.751 19.7657 239.161 19.4306 239.639 19.2441C240.226 19.0113 240.852 18.8974 241.481 18.9087C241.915 18.9042 242.349 18.9458 242.775 19.0328C243.123 19.1028 243.458 19.2284 243.769 19.4051C244.033 19.5554 244.256 19.7737 244.416 20.0391C244.567 20.3146 244.644 20.6277 244.636 20.9447H243.665C243.672 20.7405 243.61 20.5401 243.49 20.3779C243.364 20.2164 243.199 20.0926 243.011 20.019C242.794 19.9272 242.565 19.8663 242.332 19.8378C242.068 19.8006 241.802 19.7827 241.536 19.7842C241.209 19.7819 240.884 19.8167 240.565 19.8882C240.289 19.9516 240.026 20.0651 239.788 20.2236C239.57 20.3699 239.391 20.5706 239.267 20.8072C239.137 21.0754 239.074 21.3727 239.082 21.6726V21.8638C239.063 22.2524 239.163 22.6374 239.367 22.964C239.568 23.2462 239.848 23.4571 240.17 23.5677C240.554 23.7014 240.958 23.7649 241.364 23.7556C241.808 23.7686 242.252 23.7144 242.681 23.5946C242.965 23.5196 243.221 23.3584 243.416 23.1317C243.571 22.9324 243.653 22.6831 243.649 22.4273V22.3401H241.358V21.515H244.636V24.5337H243.989L243.882 23.7623C243.684 23.9754 243.449 24.1473 243.189 24.2688C242.905 24.4018 242.604 24.4954 242.296 24.5472C241.961 24.609 241.621 24.6415 241.28 24.6444Z" fill="#1FDEE7"/>
<path d="M246.164 24.5338V19.0161H247.167V24.5338H246.164Z" fill="#1FDEE7"/>
<path d="M250.567 24.5338V19.9352H248.172V19.0161H253.959V19.9352H251.567V24.5338H250.567Z" fill="#1FDEE7"/>
<path d="M253.344 24.534L256.04 19.0029H257.182L259.875 24.534H258.775L258.199 23.3433H254.962L254.386 24.534H253.344ZM255.357 22.4913H257.794L257.088 20.9853L256.975 20.7303L256.826 20.3949C256.777 20.2764 256.731 20.1724 256.69 20.083C256.668 20.0233 256.639 19.966 256.606 19.9119H256.545L256.38 20.2876C256.318 20.4285 256.26 20.566 256.202 20.6934C256.143 20.8209 256.098 20.9249 256.062 20.9987L255.357 22.4913Z" fill="#1FDEE7"/>
<path d="M260.891 24.5338V19.0161H261.891V23.6315H265.253V24.5338H260.891Z" fill="#1FDEE7"/>
<path d="M227.852 34.2074L230.548 28.6763H231.69L234.386 34.2074H233.282L232.706 33.0166H229.47L228.894 34.2074H227.852ZM229.865 32.1647H232.302L231.596 30.6586L231.483 30.4037C231.433 30.2919 231.385 30.1801 231.337 30.0683L231.201 29.7563C231.177 29.697 231.147 29.6398 231.114 29.5853H231.052C231.007 29.6926 230.952 29.8167 230.887 29.9609C230.823 30.1052 230.768 30.2393 230.709 30.3668C230.651 30.4943 230.606 30.5982 230.57 30.672L229.865 32.1647Z" fill="#1FDEE7"/>
<path d="M238.081 34.3048C237.002 34.3048 236.195 34.0689 235.66 33.5971C235.125 33.1253 234.857 32.4086 234.857 31.447C234.839 30.8891 234.981 30.3381 235.265 29.8638C235.552 29.4252 235.964 29.09 236.443 28.9045C237.029 28.6717 237.653 28.5578 238.281 28.5691C238.716 28.5644 239.15 28.606 239.576 28.6932C239.924 28.7626 240.259 28.8882 240.569 29.0655C240.834 29.2158 241.057 29.4341 241.217 29.6995C241.368 29.975 241.444 30.2881 241.437 30.6051H240.466C240.473 30.4009 240.411 30.2005 240.291 30.0383C240.166 29.8761 240 29.7521 239.812 29.6794C239.594 29.5876 239.366 29.5266 239.132 29.4982C238.869 29.4609 238.603 29.443 238.336 29.4446C238.01 29.4423 237.684 29.4771 237.365 29.5486C237.089 29.612 236.826 29.7255 236.589 29.884C236.371 30.0303 236.191 30.231 236.067 30.4676C235.938 30.7358 235.874 31.0332 235.883 31.333V31.5242C235.863 31.9134 235.964 32.2988 236.171 32.6244C236.37 32.9072 236.65 33.1183 236.97 33.2281C237.355 33.3615 237.759 33.425 238.165 33.416C238.609 33.429 239.053 33.3748 239.482 33.255C239.766 33.18 240.022 33.0188 240.217 32.7921C240.371 32.5928 240.454 32.3435 240.45 32.0877V32.0005H238.158V31.1619H241.437V34.1975H240.79L240.68 33.426C240.482 33.6391 240.247 33.8111 239.987 33.9325C239.702 34.0655 239.402 34.1591 239.094 34.2109C238.759 34.2714 238.42 34.3028 238.081 34.3048Z" fill="#1FDEE7"/>
<path d="M242.965 34.2074V28.6763H248.289V29.5651H243.968V30.9572H247.852V31.836H243.968V33.342H248.35V34.2174L242.965 34.2074Z" fill="#1FDEE7"/>
<path d="M249.711 34.2074V28.6763H250.682L253.828 31.9064C253.889 31.9634 253.964 32.0405 254.048 32.1345C254.132 32.2284 254.223 32.3257 254.313 32.4196C254.404 32.5135 254.478 32.6041 254.543 32.6779H254.605C254.605 32.5705 254.605 32.4364 254.605 32.2754C254.605 32.1144 254.605 31.9768 254.605 31.8661V28.6763H255.576V34.2074H254.653L251.498 30.9471C251.368 30.8129 251.235 30.6687 251.093 30.5144C250.951 30.3601 250.844 30.2326 250.769 30.1421H250.714C250.714 30.2226 250.714 30.35 250.714 30.5211C250.714 30.6922 250.714 30.8766 250.714 31.0779V34.2074H249.711Z" fill="#1FDEE7"/>
<path d="M260.125 34.3049C259.514 34.3209 258.906 34.2067 258.339 33.9695C257.886 33.7772 257.506 33.4384 257.254 33.0035C257.002 32.5215 256.878 31.9785 256.895 31.4304C256.872 31.0364 256.935 30.6421 257.078 30.2764C257.222 29.9107 257.442 29.583 257.724 29.3172C258.28 28.8208 259.073 28.5726 260.109 28.5726C260.644 28.5626 261.178 28.6476 261.685 28.8241C262.1 28.9641 262.468 29.2208 262.75 29.5654C263.009 29.9042 263.145 30.3272 263.132 30.7595H262.145C262.155 30.4885 262.064 30.2238 261.889 30.0216C261.693 29.8116 261.444 29.6619 261.171 29.5889C260.818 29.4889 260.452 29.4415 260.086 29.448C259.699 29.4391 259.313 29.5121 258.954 29.6627C258.644 29.7893 258.378 30.0089 258.19 30.2933C258.001 30.6003 257.906 30.9592 257.918 31.323V31.5243C257.906 31.8965 258.003 32.2638 258.196 32.5775C258.385 32.863 258.652 33.0828 258.963 33.2081C259.328 33.3544 259.718 33.425 260.109 33.4161C260.479 33.4235 260.848 33.3784 261.206 33.2819C261.477 33.2102 261.723 33.0601 261.915 32.8492C262.085 32.6485 262.175 32.3884 262.167 32.1213H263.138C263.15 32.5488 263.016 32.9667 262.76 33.302C262.478 33.6433 262.112 33.8984 261.701 34.04C261.195 34.2235 260.662 34.3132 260.125 34.3049Z" fill="#1FDEE7"/>
<path d="M266.338 34.2076V31.9469L263.703 28.6765H264.923L266.826 31.1016H266.904L268.846 28.6765H269.998L267.357 31.9469V34.2076H266.338Z" fill="#1FDEE7"/>
<path d="M64.6254 1.18869C62.5313 0.316597 56.0971 0.0314941 54.1131 0.0314941C52.5789 0.0445976 51.05 0.218785 49.5497 0.551394C47.8493 0.932233 46.2246 1.61298 44.7467 2.56392C43.5171 3.35601 42.4233 4.35468 41.5101 5.51899L41.2707 0.752649H37.4062V34.2948H41.9374V14.8068C41.8883 12.8378 42.4837 10.9096 43.6268 9.33609C44.7945 7.77963 46.311 6.54191 48.0447 5.73031C49.767 4.89319 51.6445 4.45481 53.5468 4.44564C54.9482 4.44564 59.7771 4.5362 60.8645 4.70056C61.8372 4.83518 62.7702 5.18648 63.5994 5.73031C64.3944 6.30893 64.9961 7.12947 65.3212 8.07826C65.7581 9.19857 65.9685 10.7885 65.9685 12.8043V34.3015H70.4996V12.1234C70.4996 9.22205 70.0012 6.85732 69.0173 5.09635C68.0272 3.31191 66.4772 1.93281 64.6254 1.18869Z" fill="white"/>
<path d="M26.054 2.07755C23.6719 0.70903 20.5519 0.0180664 16.7684 0.0180664C13.15 0.0180664 10.0656 0.665427 7.5961 1.94338C5.13722 3.19199 3.13598 5.23423 1.89336 7.76295C0.637596 10.2853 0 13.445 0 17.1548C0 20.8645 0.647304 24.1014 1.92249 26.6405C3.17664 29.1796 5.20703 31.2166 7.69643 32.4332C9.94258 33.5502 12.6645 34.1707 15.7877 34.2747V34.2948H33.0092V29.9008H16.859C14.7577 29.9035 12.6736 29.5079 10.7096 28.7335C8.92226 28.0128 7.40309 26.7203 6.3727 25.0439C5.40175 23.5009 4.87096 21.4482 4.77386 18.9291H33.0125V15.1422C33.0384 12.535 32.4695 9.95824 31.3521 7.62207C30.1715 5.25833 28.3232 3.32408 26.054 2.07755ZM28.3519 14.5385H4.83212C5.04896 12.3012 5.62506 10.4497 6.54424 9.02749C7.53453 7.46992 8.9528 6.25595 10.6158 5.54246C12.4414 4.77319 14.3964 4.38781 16.3671 4.40874C17.8845 4.40661 19.3975 4.57758 20.8788 4.91857C22.251 5.23255 23.5534 5.81299 24.7173 6.62923C25.8568 7.46347 26.7688 8.58889 27.3647 9.89623C28.0007 11.356 28.3368 12.9369 28.3519 14.5385Z" fill="white"/>
<path d="M100.941 2.07755C98.5625 0.70903 95.4393 0.0180664 91.6558 0.0180664C88.0406 0.0180664 84.9562 0.665427 82.4867 1.94338C80.0279 3.19199 78.0266 5.23423 76.784 7.76295C75.5282 10.2853 74.8906 13.445 74.8906 17.1548C74.8906 20.8645 75.5379 24.1014 76.8131 26.6405C78.065 29.1801 80.0946 31.2174 82.5838 32.4332C84.8332 33.5502 87.5551 34.1707 90.6751 34.2747V34.2948H107.9V29.9008H91.7173C89.6235 29.9058 87.5464 29.5159 85.5873 28.7503C83.8009 28.0293 82.2828 26.7369 81.2536 25.0607C80.2827 23.5177 79.7486 21.4649 79.6548 18.9459H107.893V15.1422C107.919 12.535 107.35 9.95824 106.233 7.62207C105.053 5.26019 103.207 3.32638 100.941 2.07755ZM103.243 14.5385H79.7195C79.9396 12.3012 80.5125 10.4497 81.4349 9.02749C82.4243 7.46908 83.8428 6.25488 85.5064 5.54246C87.332 4.77319 89.287 4.38781 91.2577 4.40874C92.7751 4.40661 94.2881 4.57758 95.7694 4.91857C97.1408 5.23186 98.4423 5.81238 99.6047 6.62923C100.745 7.46304 101.659 8.5885 102.255 9.89623C102.89 11.3565 103.226 12.9371 103.243 14.5385Z" fill="white"/>
<path d="M175.772 2.07755C173.393 0.70903 170.27 0.0180664 166.487 0.0180664C162.868 0.0180664 159.784 0.665427 157.318 1.94338C154.863 3.19515 152.866 5.23682 151.625 7.76295C150.369 10.2853 149.734 13.445 149.734 17.1548C149.734 20.8645 150.382 24.1014 151.654 26.6405C152.908 29.1796 154.938 31.2166 157.428 32.4332C159.674 33.5502 162.396 34.1707 165.519 34.2747V34.2948H182.74V29.9008H166.558C164.464 29.9064 162.387 29.5165 160.428 28.7503C158.641 28.0285 157.122 26.7363 156.091 25.0607C155.12 23.5177 154.589 21.4649 154.492 18.9459H182.731V15.1422C182.758 12.5348 182.189 9.95768 181.07 7.62207C179.89 5.25833 178.041 3.32408 175.772 2.07755ZM178.07 14.5385H154.563C154.78 12.3012 155.356 10.4497 156.275 9.02749C157.266 7.46992 158.684 6.25595 160.347 5.54246C162.173 4.77379 164.128 4.38843 166.098 4.40874C167.616 4.40661 169.129 4.57758 170.61 4.91857C171.983 5.23123 173.285 5.81177 174.448 6.62923C175.588 7.46405 176.501 8.58924 177.099 9.89623C177.732 11.3568 178.067 12.9373 178.083 14.5385H178.07Z" fill="white"/>
<path d="M220.154 15.142C220.18 12.5348 219.611 9.95806 218.494 7.62189C217.31 5.25791 215.459 3.32473 213.186 2.08072C210.807 0.712204 207.684 0.0212402 203.901 0.0212402C200.285 0.0212402 197.201 0.668601 194.732 1.94656C192.278 3.19665 190.282 5.2374 189.042 7.76277C187.786 10.2851 187.148 13.4448 187.148 17.1546C187.148 20.8643 187.796 24.1012 189.071 26.6403C190.324 29.1792 192.353 31.2162 194.842 32.433C197.107 33.55 199.813 34.1705 202.933 34.2745V34.2946H220.158V29.9006H203.975C201.882 29.9059 199.806 29.5161 197.848 28.7501C196.061 28.0302 194.541 26.7375 193.511 25.0605C192.54 23.5175 192.01 21.4647 191.913 18.9457H220.151L220.154 15.142ZM215.487 14.5416H191.955C192.175 12.3044 192.748 10.4529 193.67 9.03066C194.659 7.47226 196.078 6.25805 197.742 5.54564C199.57 4.7739 201.528 4.38735 203.503 4.40855C205.02 4.40643 206.533 4.5774 208.014 4.91839C209.386 5.23168 210.687 5.81219 211.85 6.62904C212.99 7.46285 213.903 8.58832 214.5 9.89605C215.135 11.3564 215.471 12.9369 215.487 14.5383V14.5416Z" fill="white"/>
<path d="M144.089 19.2108C143.246 17.9705 142.1 16.9844 140.769 16.353C139.338 15.6753 137.834 15.1776 136.289 14.8704C135.357 14.6759 133.053 14.4981 130.787 14.327C128.991 14.1929 127.292 14.0621 126.531 13.9447C124.812 13.673 123.175 13.3375 121.657 12.9384C120.415 12.6598 119.244 12.116 118.216 11.3418C117.589 10.7594 117.194 9.95522 117.108 9.08668C117.022 8.21814 117.253 7.34776 117.754 6.64588C118.306 6.03155 118.998 5.5703 119.767 5.3042C120.778 4.93452 121.829 4.6913 122.896 4.57968C124.079 4.44847 125.267 4.3813 126.457 4.37843H145.228V0.00452635H126.457C124.272 -0.0347167 122.089 0.181321 119.951 0.648541C118.407 0.980844 116.935 1.60752 115.611 2.49671C114.567 3.2194 113.718 4.20655 113.145 5.36457C112.612 6.55691 112.35 7.86014 112.38 9.17384C112.41 10.4875 112.73 11.7766 113.316 12.9417C113.99 14.106 114.952 15.0616 116.103 15.709C117.445 16.4667 118.875 17.0416 120.359 17.4196C122.195 17.9057 124.056 18.2875 125.932 18.5634C126.952 18.7278 128.774 18.8988 130.706 19.0531C132.946 19.251 135.483 19.4724 136.318 19.677C137.765 20.0359 138.882 20.5994 139.629 21.3541C140.322 22.0585 140.671 23.1721 140.671 24.6681C140.671 26.0266 140.209 27.2877 139.464 27.9552C138.431 28.8204 137.209 29.408 135.904 29.6659C134.664 29.9543 129.984 29.9107 127.466 29.8839H126H112.297V34.288H126.029H127.874C128.845 34.288 129.816 34.288 130.751 34.288C133.46 34.288 135.729 34.2343 136.729 34.0197C138.359 33.7073 139.926 33.1083 141.361 32.2486C142.617 31.4707 143.646 30.3559 144.342 29.0219C144.989 27.7909 145.351 25.946 145.351 24.0844C145.351 22.1021 144.927 20.4653 144.089 19.2208V19.2108Z" fill="white"/>
</svg>
